# xmcd
#
# Track frame offsets: 
#        150
#        24235
#        39367
#        60083
#        75374
#        93597
#        110248
#        124371
#        142312
#        156128
#        176176
#        192141
#        214283
#        245159
#
# Disc length: 3336 seconds
#
# Revision: 1
# Processed by: cddbd v1.5.2PL0 Copyright (c) Steve Scherf et al.
# Submitted via: ExactAudioCopy v1.3
#
DISCID=c60d060e
DTITLE=Moby - A Night in NYC (The Sunday Times CD)
DYEAR=2008
DGENRE=Blues
TTITLE0=Ooh Yeah
TTITLE1=Honey
TTITLE2=In My Heart
TTITLE3=Disco Lies
TTITLE4=Go
TTITLE5=Everyday it's 1989
TTITLE6=Lift Me Up
TTITLE7=Extreme Ways
TTITLE8=Natural Blues
TTITLE9=Alice
TTITLE10=Porcelain
TTITLE11=Last Night
TTITLE12=Rockets
TTITLE13='Last Night' Video
EXTD=YEAR: 2008
EXTT0=
EXTT1=
EXTT2=
EXTT3=
EXTT4=
EXTT5=
EXTT6=
EXTT7=
EXTT8=
EXTT9=
EXTT10=
EXTT11=
EXTT12=
EXTT13=
PLAYORDER=
